<svg xmlns="http://www.w3.org/2000/svg"
  stroke-width="1.5" stroke="currentColor">
  <path d="M.714 6.01H1.131l.23-.001a240.715 240.715 0 0 1 1.015-.002h1.22c.47 0 .94-.002 1.409-.003l1.089-.002a220.29 220.29 0 0 0 1.262-.001H8.061c.175.019.287.064.437.157.093.14.093.14.093.749h2.527v-.515a.961.961 0 0 1 .234-.328 1.29 1.29 0 0 1 .438-.053h.5l.484-.001h.304a818.22 818.22 0 0 1 2.046-.002 393.733 393.733 0 0 1 1.354-.001c1.832-.005 1.832-.005 2.661.2l.121.03c.725.19 1.407.508 2.011.95l.083.061a6.508 6.508 0 0 1 2.412 3.41l.034.112c.164.558.203 1.114.2 1.693v.1a6.313 6.313 0 0 1-.81 3.094l.092.072c.358.298.556.61.703 1.05.047.61-.007 1.098-.41 1.589-.346.36-.78.528-1.274.565a1.888 1.888 0 0 1-1.31-.548.949.949 0 0 1-.188-.248c-.138.03-.259.075-.387.135-1.64.745-3.39.867-5.103.261a7.299 7.299 0 0 1-2.277-1.473l-.107-.097c-1.141-1.083-1.632-2.593-1.811-4.114-.945-.305-1.894-.6-2.843-.894l-.382-.118a938.619 938.619 0 0 0-4.5-1.379 498.715 498.715 0 0 1-.875-.267 154.94 154.94 0 0 0-.716-.216A191.995 191.995 0 0 1 .72 9.65l-.1-.029a1.66 1.66 0 0 1-.545-.28C.012 9.213.021 9.111.02 8.969l-.002-.177a154.761 154.761 0 0 1-.002-.289l-.003-.51a46.168 46.168 0 0 0-.004-.422l-.004-.51a15.559 15.559 0 0 0-.002-.195 14.622 14.622 0 0 1 0-.272L0 6.437c.038-.185.118-.255.262-.373.16-.053.283-.053.452-.053zm.203.943v1.778c1.481.47 2.965.926 4.451 1.378.964.293 1.928.588 2.89.886l.138.043a1213.196 1213.196 0 0 1 2.364.735l.176.055c.127.042.127.042.229.038l.016-.093c.323-1.814 1.087-3.385 2.604-4.492a12.845 12.845 0 0 1 .345-.228L14.206 7v-.047h-2.2l-.046.608c-.18.18-.282.193-.528.194H11.224l-.35.001h-.244l-.51.001-.655.001a162.184 162.184 0 0 1-1.081.001l-.101.001c-.169 0-.303-.003-.44-.106-.094-.187-.094-.187-.14-.701zm15.301.14-.174.044a4.939 4.939 0 0 0-2.072 1.126l-.115.095c-1.012.854-1.67 2.147-1.803 3.461-.109 1.601.256 3.025 1.31 4.258l.092.113c.713.84 1.699 1.4 2.762 1.665l.158.045c1.386.345 2.896.025 4.11-.694a6.74 6.74 0 0 0 .692-.52l.106-.085c.977-.806 1.653-2.153 1.802-3.405.144-1.615-.268-3.076-1.3-4.325l-.084-.106c-.221-.267-.484-.478-.758-.69l-.11-.084a5.4 5.4 0 0 0-3.274-1.053l-.168.001c-.41.005-.779.042-1.174.154zm6.351 9.417-.074.082-.083.09-.088.097a7.908 7.908 0 0 1-.772.749c.078.226.165.301.374.42.26.087.517.093.764-.028.2-.177.388-.35.416-.629.005-.238-.012-.402-.15-.605-.177-.21-.177-.21-.387-.176z"/>
  <path d="M19.075 7.965c.732.245 1.325.65 1.869 1.187l.09.081c.802.726 1.207 1.922 1.277 2.974.008.262.007.423-.15.642-.145.088-.232.093-.401.09-.203-.055-.24-.1-.348-.278-.038-.16-.052-.321-.068-.485-.123-1.053-.557-1.97-1.371-2.664-.67-.503-1.382-.74-2.21-.818-.437-.046-.437-.046-.61-.244a.696.696 0 0 1-.046-.374c.335-.636 1.405-.283 1.968-.11z"/>
</svg>
