<svg xmlns="http://www.w3.org/2000/svg" viewBox="0 0 512 512" xml:space="preserve" fill="currentColor" stroke-width="1.5" stroke="currentColor">
  <path d="M32 288c-17.648 0-32-14.352-32-32s14.352-32 32-32c2.977 0 5.922.406 8.742 1.211 4.25 1.211 6.719 5.633 5.508 9.883-1.203 4.266-5.672 6.734-9.883 5.508A15.991 15.991 0 0 0 32 240c-8.82 0-16 7.18-16 16s7.18 16 16 16c1.461 0 2.906-.195 4.289-.578a7.98 7.98 0 0 1 9.852 5.555c1.188 4.258-1.297 8.672-5.555 9.852A31.8 31.8 0 0 1 32 288z"/>
  <path d="M504 104H292.586a8 8 0 0 0-8 8v6c0 6.627-5.373 12-12 12s-12-5.373-12-12v-6a8 8 0 0 0-8-8h-68.297c-85.148 0-154.992 67.602-155.695 150.687-.344 41.109 15.461 79.742 44.516 108.789C101.844 392.219 139.961 408 180.57 408c.445 0 .883-.008 1.328-.008 83.086-.703 150.687-70.547 150.687-155.695v-16.648c0-16.258 12.18-29.922 28.539-31.813l122.539-17.437C499.82 184.531 512 170.867 512 154.609V112a8 8 0 0 0-8-8z"/>
  <path d="M180.586 360c-57.344 0-104-46.656-104-104s46.656-104 104-104 104 46.656 104 104-46.656 104-104 104zm0-184c-44.115 0-80 35.885-80 80s35.885 80 80 80 80-35.885 80-80-35.886-80-80-80z"/>
  <path d="M260.586 256c0 44.114-35.885 80-80 80v24c57.344 0 104-46.656 104-104s-46.656-104-104-104v24c44.115 0 80 35.885 80 80z"/>
</svg>
